<?xml version="1.0" standalone="no"?>
<!DOCTYPE svg PUBLIC "-//W3C//DTD SVG 20010904//EN"
 "http://www.w3.org/TR/2001/REC-SVG-20010904/DTD/svg10.dtd">
<svg version="1.0" xmlns="http://www.w3.org/2000/svg"
 width="512.000000pt" height="512.000000pt" viewBox="0 0 512.000000 512.000000"
 preserveAspectRatio="xMidYMid meet">

<g transform="translate(0.000000,512.000000) scale(0.100000,-0.100000)"
fill="#000000" stroke="none">
<path d="M2415 5109 c-236 -26 -535 -157 -689 -302 -42 -40 -48 -85 -16 -117
36 -36 72 -26 167 45 275 204 613 277 949 206 202 -43 368 -131 529 -281 56
-52 121 -108 145 -124 73 -50 124 -135 162 -271 16 -59 20 -115 25 -369 l6
-299 -24 7 c-13 3 -45 9 -71 13 l-47 6 -3 143 c-4 190 -4 190 -165 233 -57 15
-120 65 -166 131 -49 71 -79 90 -144 90 -47 0 -58 -5 -131 -59 -266 -197 -542
-272 -885 -241 -126 11 -149 11 -205 -4 -73 -18 -158 -71 -196 -121 -31 -40
-76 -133 -76 -156 0 -12 -13 -18 -52 -22 -29 -4 -64 -9 -77 -13 l-24 -7 7 187
c11 281 36 393 126 571 54 107 59 132 33 163 -28 33 -64 37 -96 11 -31 -24
-101 -157 -141 -267 -54 -152 -66 -246 -66 -529 0 -214 -3 -268 -16 -307 -38
-111 9 -244 110 -312 40 -27 121 -54 161 -54 32 0 32 -1 43 -67 41 -248 210
-508 416 -642 l66 -43 0 -52 0 -53 -107 -85 -108 -84 -285 -98 c-157 -54 -316
-113 -355 -131 -120 -56 -205 -148 -253 -276 -34 -91 -243 -1162 -243 -1246
-1 -109 49 -201 130 -242 71 -36 132 -41 522 -41 l380 0 24 25 c32 31 32 69 0
100 -22 23 -31 25 -125 25 l-100 0 0 419 c0 408 -1 419 -21 445 -28 36 -80 36
-108 0 -20 -26 -21 -37 -21 -445 l0 -419 -210 0 c-170 0 -217 3 -250 16 -50
20 -72 59 -72 125 1 66 219 1153 242 1206 26 60 66 110 116 143 37 26 641 248
648 239 1 -2 63 -91 136 -197 74 -107 145 -202 158 -213 30 -23 97 -42 126
-35 16 4 27 -3 44 -28 12 -18 22 -36 22 -41 0 -5 -55 -189 -121 -408 -133
-439 -137 -461 -88 -531 13 -19 73 -89 132 -155 l108 -121 -171 0 c-168 0
-171 0 -195 -25 -32 -31 -32 -69 0 -101 l25 -24 1072 2 1073 3 50 23 c107 49
156 129 157 258 0 82 -111 630 -134 660 -28 34 -82 31 -111 -8 l-20 -27 57
-287 c62 -311 69 -382 38 -423 -32 -43 -70 -50 -299 -50 l-213 -1 0 419 c0
408 -1 419 -21 445 -27 34 -79 36 -109 4 -19 -21 -20 -33 -20 -445 l0 -423
-422 0 -422 0 25 28 c137 148 224 252 236 279 7 18 13 49 13 68 0 20 -54 215
-120 432 -66 218 -120 402 -120 410 0 8 10 28 21 45 17 24 27 29 48 25 31 -6
95 14 123 40 11 10 79 103 151 207 72 103 136 190 142 192 19 7 606 -206 649
-236 87 -59 120 -122 156 -299 31 -146 45 -171 99 -171 35 0 71 38 71 73 0 57
-53 275 -82 335 -36 76 -130 175 -204 214 -27 15 -186 75 -353 133 -166 58
-312 110 -324 116 -12 7 -64 48 -114 91 l-93 80 0 48 0 48 67 43 c208 136 373
392 415 642 11 66 11 67 43 67 17 0 54 7 81 17 133 44 213 156 200 280 -4 32
-11 236 -16 453 -9 429 -14 469 -70 604 -40 97 -105 184 -171 233 -28 21 -92
76 -143 123 -50 47 -113 102 -141 122 -238 171 -577 253 -900 217z m685 -1073
c49 -81 158 -159 259 -186 l43 -11 -4 -402 c-4 -370 -6 -408 -25 -478 -81
-293 -284 -504 -571 -596 -114 -37 -304 -43 -424 -14 -257 61 -476 238 -579
468 -64 143 -72 192 -76 488 -5 294 -1 328 44 388 45 57 97 82 173 80 384 -8
434 -6 540 16 57 12 132 31 165 42 98 32 275 125 350 183 39 30 73 55 77 55 3
1 16 -14 28 -33z m-1530 -696 c0 -127 -1 -130 -22 -130 -36 0 -102 38 -121 69
-21 36 -22 83 -2 120 15 31 86 71 123 71 22 0 22 -2 22 -130z m2067 109 c68
-33 92 -103 58 -168 -15 -31 -86 -71 -123 -71 -21 0 -22 3 -22 130 0 127 1
130 22 130 12 0 41 -9 65 -21z m-1249 -1255 c123 -23 317 -15 430 19 72 21 82
22 82 8 0 -18 -335 -344 -349 -339 -5 2 -82 74 -170 161 -170 167 -198 209
-120 182 22 -8 80 -22 127 -31z m657 -176 c33 -28 60 -56 59 -62 -1 -14 -232
-347 -252 -363 -21 -17 -29 -10 -116 87 l-76 85 157 152 c87 84 160 152 163
153 3 0 32 -23 65 -52z m-746 -104 c135 -130 149 -148 138 -164 -37 -53 -156
-170 -168 -165 -14 6 -265 362 -262 372 3 11 118 102 130 102 6 1 79 -65 162
-145z m321 -327 l54 -58 -19 -35 -18 -34 -77 0 c-73 0 -77 1 -99 31 -19 25
-20 33 -10 47 24 32 103 112 109 110 3 -2 30 -29 60 -61z m57 -479 c34 -111
61 -204 59 -205 -1 -1 -63 59 -138 135 l-136 137 20 68 21 67 57 0 56 0 61
-202z m173 -567 c0 -27 -36 -81 -53 -81 -7 0 -106 93 -220 208 l-207 207 16
50 c9 28 18 57 20 65 8 22 444 -419 444 -449z m-163 -204 c-5 -15 -122 -146
-128 -144 -16 5 -289 320 -289 334 0 9 12 55 26 102 l26 84 184 -184 c101
-101 183 -188 181 -192z"/>
</g>
</svg>
