<?xml version="1.0" standalone="no"?>
<!DOCTYPE svg PUBLIC "-//W3C//DTD SVG 20010904//EN"
 "http://www.w3.org/TR/2001/REC-SVG-20010904/DTD/svg10.dtd">
<svg version="1.0" xmlns="http://www.w3.org/2000/svg"
 width="512.000000pt" height="512.000000pt" viewBox="0 0 512.000000 512.000000"
 preserveAspectRatio="xMidYMid meet">

<g transform="translate(0.000000,512.000000) scale(0.100000,-0.100000)"
fill="#000000" stroke="none">
<path d="M1990 5110 c-766 -61 -1427 -509 -1765 -1195 -150 -305 -217 -597
-217 -945 0 -263 32 -462 114 -698 223 -651 751 -1158 1411 -1356 247 -75 561
-109 801 -87 72 7 142 15 155 18 13 3 22 2 19 -3 -2 -5 -16 -35 -31 -66 -96
-198 -63 -432 85 -593 65 -72 147 -126 236 -157 l67 -23 910 0 910 0 75 28
c301 111 447 467 306 745 -13 26 -216 373 -451 772 l-427 725 11 40 c69 249
89 368 98 580 24 592 -205 1173 -630 1596 -449 447 -1052 669 -1677 619z m10
-377 c0 -67 5 -96 21 -129 38 -80 145 -107 217 -55 46 33 62 77 62 176 l0 87
68 -7 c149 -15 431 -93 540 -149 l33 -17 -30 -52 c-16 -29 -37 -65 -45 -82
-56 -107 53 -238 172 -206 46 13 78 46 127 129 l36 62 46 -32 c124 -89 299
-264 392 -393 l31 -43 -62 -38 c-85 -50 -116 -81 -129 -126 -28 -104 68 -205
174 -183 17 4 37 11 42 15 6 4 36 21 67 39 l57 32 17 -33 c56 -109 134 -391
149 -540 l7 -68 -83 0 c-108 0 -159 -23 -188 -84 -26 -53 -26 -79 0 -132 29
-61 80 -84 188 -84 l83 0 -7 -71 c-4 -39 -17 -114 -29 -167 -20 -93 -22 -97
-46 -94 -14 2 -74 4 -135 5 -92 0 -120 -3 -170 -23 -73 -28 -147 -76 -197
-127 -20 -21 -181 -283 -358 -583 -299 -507 -323 -546 -356 -557 -57 -20 -254
-61 -326 -68 l-68 -7 0 87 c0 99 -16 143 -62 176 -72 52 -179 25 -217 -55 -16
-33 -21 -62 -21 -130 l0 -87 -32 5 c-18 3 -67 10 -108 17 -95 14 -202 41 -310
77 -85 29 -190 72 -190 77 0 2 20 42 45 89 25 48 45 97 45 111 0 95 -97 170
-188 146 -45 -13 -76 -44 -126 -129 -21 -35 -42 -62 -46 -60 -28 10 -182 143
-266 230 -89 92 -194 217 -194 232 0 3 28 21 63 41 82 49 115 81 128 127 24
91 -51 188 -146 188 -14 0 -63 -20 -111 -45 -47 -25 -87 -45 -89 -45 -5 0 -48
105 -77 190 -36 108 -63 215 -77 310 -7 41 -14 90 -17 108 l-5 32 87 0 c113 0
163 22 193 84 26 53 26 79 0 132 -30 62 -80 84 -193 84 l-87 0 5 33 c3 17 10
66 17 107 14 97 43 214 78 315 29 82 71 185 76 185 2 0 42 -20 89 -45 48 -25
97 -45 111 -45 95 0 170 97 146 188 -13 46 -46 78 -128 127 -35 20 -63 38 -63
41 0 15 105 140 194 232 84 87 238 220 266 230 4 2 25 -25 46 -60 50 -85 81
-116 126 -129 91 -24 188 51 188 146 0 14 -20 63 -45 111 -25 47 -45 87 -45
89 0 6 147 64 240 93 113 36 276 70 388 81 9 1 12 -22 12 -86z m1824 -2544
c21 -6 56 -27 77 -47 26 -25 177 -272 452 -742 228 -388 424 -724 435 -747 50
-97 34 -202 -43 -278 -77 -78 -38 -75 -983 -75 -626 0 -845 3 -876 12 -55 16
-138 99 -154 154 -15 52 -15 109 1 154 14 38 843 1454 883 1506 27 37 97 74
139 74 17 0 47 -5 69 -11z"/>
<path d="M2083 4200 c-30 -15 -48 -34 -62 -64 -20 -40 -21 -60 -21 -433 l0
-391 -43 -25 c-58 -34 -114 -97 -146 -166 -22 -48 -26 -69 -26 -151 0 -82 4
-103 26 -151 126 -267 495 -299 649 -55 l35 55 289 1 c272 0 292 1 332 21 45
21 84 81 84 129 0 48 -39 108 -84 129 -40 20 -61 21 -332 22 l-289 0 -38 59
c-27 41 -56 70 -97 97 l-59 38 0 393 c-1 342 -3 398 -17 428 -35 74 -125 103
-201 64z"/>
<path d="M3703 1780 c-30 -15 -48 -34 -62 -64 -19 -39 -21 -61 -21 -266 0
-205 2 -227 21 -266 38 -79 149 -107 218 -57 56 42 61 66 61 323 0 204 -2 240
-18 269 -37 74 -122 100 -199 61z"/>
<path d="M3703 880 c-44 -23 -83 -83 -83 -130 0 -49 39 -108 86 -131 103 -49
214 19 214 131 0 113 -115 182 -217 130z"/>
</g>
</svg>
