<?xml version="1.0" standalone="no"?>
<!DOCTYPE svg PUBLIC "-//W3C//DTD SVG 20010904//EN"
 "http://www.w3.org/TR/2001/REC-SVG-20010904/DTD/svg10.dtd">
<svg version="1.0" xmlns="http://www.w3.org/2000/svg"
 width="640.000000pt" height="640.000000pt" viewBox="0 0 640.000000 640.000000"
 preserveAspectRatio="xMidYMid meet">

<g transform="translate(0.000000,640.000000) scale(0.100000,-0.100000)"
fill="#000000" stroke="none">
<path d="M915 4751 c-43 -19 -100 -78 -116 -118 -5 -14 -9 -391 -9 -924 0
-974 -2 -939 53 -997 45 -49 92 -64 219 -69 l118 -6 0 -247 0 -248 28 -53 c34
-66 94 -114 162 -128 28 -6 134 -11 235 -11 170 0 185 -1 185 -17 0 -36 59
-140 106 -186 205 -204 553 -124 646 148 l17 50 922 0 922 0 16 -50 c88 -269
437 -350 644 -150 47 44 107 150 107 188 0 15 13 17 123 17 176 1 242 31 291
132 l26 53 0 535 1 535 -247 535 c-136 294 -258 550 -271 567 -14 18 -50 45
-81 60 l-57 28 -397 3 -398 3 0 92 c0 51 -5 109 -11 130 -14 52 -84 122 -134
136 -28 8 -483 11 -1550 11 -1439 0 -1512 -1 -1550 -19z m3035 -1046 l0 -855
-1480 0 -1480 0 0 855 0 855 1480 0 1480 0 0 -855z m1065 300 l83 -180 -242
-5 c-242 -5 -243 -5 -283 -32 -69 -46 -73 -63 -73 -340 l0 -244 29 -45 c53
-84 51 -84 494 -87 l387 -3 -2 -452 -3 -452 -122 -3 -122 -3 -22 42 c-31 62
-120 146 -186 177 -52 24 -70 27 -163 27 -94 0 -111 -3 -165 -28 -72 -34 -148
-104 -181 -169 l-24 -48 -130 0 -130 0 0 1015 0 1015 386 -2 387 -3 82 -180z
m246 -530 c33 -71 67 -145 74 -162 l14 -33 -325 0 -324 0 0 165 0 165 250 -2
250 -3 61 -130z m-1311 -1075 l0 -240 -704 0 -704 0 -22 43 c-33 65 -115 142
-184 174 -55 25 -72 28 -166 28 -93 0 -111 -3 -163 -27 -66 -31 -155 -115
-186 -176 l-21 -42 -198 0 c-141 0 -201 3 -210 12 -9 9 -12 76 -12 240 l0 228
1285 0 1285 0 0 -240z m-1707 -204 c84 -35 133 -141 107 -229 -45 -151 -261
-175 -338 -39 -26 47 -30 138 -8 180 43 83 154 124 239 88z m2615 -1 c76 -32
113 -88 114 -170 2 -180 -228 -258 -332 -113 -52 72 -48 166 10 232 56 64 132
82 208 51z"/>
</g>
</svg>
