<?xml version="1.0" standalone="no"?>
<!DOCTYPE svg PUBLIC "-//W3C//DTD SVG 20010904//EN"
 "http://www.w3.org/TR/2001/REC-SVG-20010904/DTD/svg10.dtd">
<svg version="1.0" xmlns="http://www.w3.org/2000/svg"
 width="512.000000pt" height="512.000000pt" viewBox="0 0 512.000000 512.000000"
 preserveAspectRatio="xMidYMid meet">

<g transform="translate(0.000000,512.000000) scale(0.100000,-0.100000)"
fill="#000000" stroke="none">
<path d="M2893 5106 c-213 -41 -399 -141 -543 -293 -170 -179 -257 -380 -267
-623 -7 -150 6 -240 51 -373 82 -241 262 -441 501 -558 549 -268 1204 30 1377
627 20 69 23 101 23 254 0 195 -13 261 -80 407 -67 145 -207 311 -339 402 -75
52 -224 118 -316 141 -110 27 -307 35 -407 16z m363 -176 c601 -153 825 -882
410 -1336 -105 -116 -252 -203 -411 -244 -110 -29 -279 -29 -390 -1 -291 75
-518 299 -597 587 -30 111 -30 297 0 408 78 285 307 512 592 586 106 27 289
27 396 0z"/>
<path d="M2348 3025 c-301 -125 -574 -362 -724 -631 l-36 -64 -127 0 c-116 0
-131 -2 -162 -23 -54 -36 -69 -77 -69 -191 l0 -99 -78 75 c-58 57 -87 78 -114
83 -75 14 -93 3 -271 -174 -93 -91 -175 -178 -183 -193 -18 -35 -18 -91 0
-126 8 -15 44 -56 81 -92 l66 -65 -110 -5 c-118 -5 -141 -15 -185 -74 -20 -26
-21 -41 -21 -281 0 -240 1 -255 21 -282 37 -51 97 -73 198 -73 l89 0 -66 -69
c-37 -38 -71 -81 -77 -95 -14 -38 -12 -92 4 -124 25 -47 328 -340 369 -357 34
-14 53 -14 112 2 11 3 53 37 93 76 l72 70 0 -97 c0 -116 18 -160 81 -195 37
-21 48 -22 283 -19 229 3 246 4 272 24 59 44 69 67 72 180 l4 106 72 -70 c82
-80 126 -99 191 -81 32 9 73 44 212 182 145 145 173 178 178 210 13 69 -1 103
-77 183 l-71 74 79 0 c94 0 143 12 183 45 l29 25 941 0 c1030 0 999 -2 1022
57 7 19 9 163 6 448 -4 472 -10 523 -77 726 -113 342 -349 635 -661 820 -94
56 -243 119 -281 119 -21 0 -54 -16 -102 -49 -186 -128 -361 -179 -574 -168
-174 9 -331 65 -481 171 -75 53 -99 56 -183 21z m242 -250 c287 -143 626 -147
916 -11 50 24 114 59 143 79 l54 36 56 -25 c330 -146 596 -438 711 -783 61
-182 62 -193 67 -623 l5 -398 -291 0 -291 0 0 168 c0 231 -11 262 -94 262 -25
0 -40 -7 -55 -26 -20 -25 -21 -40 -21 -215 l0 -189 -514 0 -514 0 -4 178 c-3
165 -5 179 -27 215 -36 59 -82 77 -197 77 l-97 0 70 73 c87 90 105 134 79 200
-23 61 -336 372 -384 382 -66 14 -101 -2 -183 -81 l-77 -75 -4 103 c-3 84 -7
110 -25 138 -25 41 -70 70 -107 70 -14 0 -26 3 -26 6 0 21 128 178 209 257
110 106 212 179 341 242 l90 43 53 -35 c28 -19 81 -50 117 -68z m-820 -723 c0
-141 4 -150 95 -186 104 -42 114 -39 214 59 l87 84 127 -127 c70 -70 127 -132
127 -138 0 -6 -30 -38 -68 -71 -37 -33 -76 -76 -87 -96 l-19 -35 31 -79 c40
-103 57 -113 206 -113 l107 0 0 -185 0 -185 -118 0 c-141 0 -150 -4 -186 -95
-42 -104 -39 -114 59 -214 l84 -87 -128 -128 -129 -129 -96 86 c-53 48 -102
87 -110 87 -30 0 -155 -52 -173 -72 -15 -16 -19 -41 -21 -139 l-4 -119 -184 0
-184 0 0 103 c0 140 -11 161 -109 199 -49 19 -83 27 -100 23 -14 -4 -62 -43
-108 -88 l-84 -81 -130 130 -130 130 85 92 c47 50 86 98 86 106 0 8 -12 47
-26 86 -38 103 -51 110 -190 110 l-114 0 0 184 0 184 118 3 c87 3 124 8 137
19 25 21 75 135 75 172 0 25 -16 47 -85 117 l-84 87 132 132 132 132 85 -85
c99 -100 116 -104 223 -56 79 36 87 53 87 197 l0 104 185 0 185 0 0 -118z"/>
<path d="M1463 1645 c-83 -23 -152 -63 -219 -127 -302 -290 -121 -792 300
-834 165 -16 349 73 444 216 103 153 110 337 22 510 -31 60 -134 162 -198 194
-108 55 -240 70 -349 41z m246 -176 c74 -32 127 -83 163 -157 29 -58 33 -77
33 -142 0 -93 -26 -155 -92 -222 -66 -67 -128 -92 -229 -93 -73 0 -88 3 -150
35 -120 61 -181 169 -172 304 14 220 246 362 447 275z"/>
</g>
</svg>
