<?xml version="1.0" standalone="no"?>
<!DOCTYPE svg PUBLIC "-//W3C//DTD SVG 20010904//EN"
 "http://www.w3.org/TR/2001/REC-SVG-20010904/DTD/svg10.dtd">
<svg version="1.0" xmlns="http://www.w3.org/2000/svg"
 width="512.000000pt" height="512.000000pt" viewBox="0 0 512.000000 512.000000"
 preserveAspectRatio="xMidYMid meet">

<g transform="translate(0.000000,512.000000) scale(0.100000,-0.100000)"
fill="#000000" stroke="none">
<path d="M2370 5070 c-514 -60 -814 -331 -894 -809 -30 -177 -18 -463 28 -677
8 -38 18 -96 21 -129 14 -119 77 -238 191 -355 55 -57 69 -80 107 -175 53
-132 114 -243 183 -333 41 -55 49 -71 42 -87 -6 -11 -85 -74 -176 -139 l-167
-119 -245 -62 c-272 -69 -304 -80 -424 -159 -348 -226 -589 -663 -676 -1221
-29 -187 -48 -528 -31 -549 12 -14 57 -16 382 -16 l369 0 0 -88 c0 -55 4 -92
12 -100 17 -17 2919 -17 2936 0 8 8 12 45 12 100 l0 88 369 0 c325 0 370 2
382 16 11 13 11 52 1 217 -37 630 -204 1078 -517 1393 -106 107 -250 209 -339
243 -29 11 -159 45 -289 76 -197 47 -242 61 -266 83 -16 15 -90 70 -165 122
-88 62 -138 103 -142 118 -5 17 2 33 23 60 78 99 169 265 214 392 17 51 37 80
89 135 118 125 171 221 191 345 7 41 27 122 44 180 59 187 70 258 70 445 0
198 -16 277 -88 430 -48 102 -164 262 -229 316 -145 120 -342 202 -583 244
-111 19 -335 27 -435 15z m671 -1092 c39 -78 85 -143 160 -228 56 -63 58 -68
80 -170 17 -79 22 -141 23 -250 1 -139 0 -149 -33 -245 -163 -484 -428 -743
-741 -722 -277 18 -505 241 -653 637 -49 132 -79 256 -72 294 10 51 55 182 68
200 8 10 54 26 125 42 166 37 358 105 518 184 138 68 368 214 449 284 22 20
41 35 42 36 2 0 17 -28 34 -62z m460 -468 c24 -13 24 -32 -1 -112 -18 -59 -95
-196 -105 -186 -2 2 14 71 35 153 22 83 40 151 40 153 0 5 12 2 31 -8z m-1803
-143 c11 -67 24 -132 27 -142 5 -14 -1 -11 -20 10 -33 39 -92 160 -100 207 -5
35 -5 37 27 41 18 2 36 5 39 5 3 1 15 -53 27 -121z m467 -943 l40 -36 -45 26
c-25 14 -46 30 -48 36 -7 19 13 9 53 -26z m827 14 c-6 -7 -25 -21 -44 -31 -32
-18 -32 -18 7 16 38 33 60 42 37 15z m-715 -189 c117 -72 216 -135 219 -140 5
-8 -286 -469 -296 -469 -9 0 -375 572 -375 586 0 18 207 165 224 158 7 -2 110
-63 228 -135z m914 64 c60 -42 109 -81 109 -85 0 -11 -373 -588 -380 -588 -3
0 -72 104 -154 231 -98 153 -145 234 -138 241 11 11 443 278 450 278 2 0 53
-35 113 -77z m-764 -19 c122 -29 289 -8 401 50 73 38 23 2 -118 -84 l-150 -92
-152 93 c-172 104 -202 126 -111 80 35 -17 93 -38 130 -47z m-1098 -556 c-49
-194 -89 -363 -89 -375 0 -14 59 -95 161 -219 88 -108 162 -201 165 -208 3 -7
-46 -48 -109 -93 -131 -94 -142 -105 -133 -135 4 -13 123 -125 264 -250 141
-126 284 -252 317 -283 l60 -54 -402 -1 -403 0 -2 531 c-3 494 -4 533 -20 543
-13 8 -23 8 -35 0 -17 -10 -18 -44 -21 -443 l-2 -431 -341 0 -340 0 5 78 c3
42 8 118 11 167 7 110 28 255 56 383 121 563 466 1017 848 1118 47 12 89 23
92 23 4 1 -33 -158 -82 -351z m2627 268 c337 -184 596 -587 698 -1086 29 -143
54 -360 58 -503 l3 -97 -337 0 -338 0 0 424 c0 233 -3 431 -6 440 -7 19 -45
21 -62 4 -9 -9 -12 -143 -12 -540 l0 -528 -402 0 c-381 0 -400 1 -385 18 9 9
151 136 316 282 165 146 303 273 306 282 12 34 -6 53 -125 137 -66 46 -120 88
-120 92 0 4 74 98 165 208 107 131 165 209 165 223 0 13 -40 181 -89 374 l-88
351 92 -22 c54 -12 120 -37 161 -59z m-1758 -484 c18 -3 32 13 78 85 32 48 60
92 65 97 4 4 19 -10 33 -33 l26 -41 -35 -679 c-19 -374 -35 -690 -35 -702 0
-12 -2 -20 -5 -17 -6 5 -465 1755 -465 1771 0 6 71 -100 158 -234 117 -182
163 -245 180 -247z m832 -406 c-126 -483 -232 -881 -235 -884 -3 -3 -5 5 -5
17 0 12 -16 328 -35 702 l-35 679 26 41 c14 23 29 37 33 33 5 -5 33 -49 65
-97 46 -72 60 -88 78 -85 17 2 62 64 178 244 85 132 156 238 158 235 1 -4
-101 -402 -228 -885z"/>
</g>
</svg>
